<mxfile host="Electron" agent="Mozilla/5.0 (Windows NT 10.0; Win64; x64) AppleWebKit/537.36 (KHTML, like Gecko) draw.io/24.7.8 Chrome/128.0.6613.36 Electron/32.0.1 Safari/537.36" version="24.7.8">
  <diagram name="Página-1" id="iuB02hNbSY2HfDQkkzmO">
    <mxGraphModel dx="2316" dy="2920" grid="1" gridSize="10" guides="1" tooltips="1" connect="1" arrows="1" fold="1" page="1" pageScale="1" pageWidth="827" pageHeight="1169" math="0" shadow="0">
      <root>
        <mxCell id="0" />
        <mxCell id="1" parent="0" />
        <mxCell id="xGK9PlimSgTLgPtPE4Tw-1" value="EMPLEATS" style="rounded=0;whiteSpace=wrap;html=1;" vertex="1" parent="1">
          <mxGeometry x="680" y="230" width="120" height="60" as="geometry" />
        </mxCell>
        <mxCell id="xGK9PlimSgTLgPtPE4Tw-2" value="REVISIONS" style="rounded=0;whiteSpace=wrap;html=1;" vertex="1" parent="1">
          <mxGeometry x="80" y="230" width="120" height="60" as="geometry" />
        </mxCell>
        <mxCell id="xGK9PlimSgTLgPtPE4Tw-3" value="CLIENTS" style="rounded=0;whiteSpace=wrap;html=1;" vertex="1" parent="1">
          <mxGeometry x="680" y="-410" width="120" height="60" as="geometry" />
        </mxCell>
        <mxCell id="xGK9PlimSgTLgPtPE4Tw-4" value="COTXES" style="rounded=0;whiteSpace=wrap;html=1;" vertex="1" parent="1">
          <mxGeometry x="80" y="-410" width="120" height="60" as="geometry" />
        </mxCell>
        <mxCell id="xGK9PlimSgTLgPtPE4Tw-5" value="matricula" style="ellipse;whiteSpace=wrap;html=1;" vertex="1" parent="1">
          <mxGeometry x="-130" y="-600" width="120" height="80" as="geometry" />
        </mxCell>
        <mxCell id="xGK9PlimSgTLgPtPE4Tw-6" value="preu" style="ellipse;whiteSpace=wrap;html=1;" vertex="1" parent="1">
          <mxGeometry x="-130" y="-240" width="120" height="80" as="geometry" />
        </mxCell>
        <mxCell id="xGK9PlimSgTLgPtPE4Tw-7" value="marca" style="ellipse;whiteSpace=wrap;html=1;" vertex="1" parent="1">
          <mxGeometry x="-130" y="-510" width="120" height="80" as="geometry" />
        </mxCell>
        <mxCell id="xGK9PlimSgTLgPtPE4Tw-8" value="model" style="ellipse;whiteSpace=wrap;html=1;" vertex="1" parent="1">
          <mxGeometry x="-130" y="-420" width="120" height="80" as="geometry" />
        </mxCell>
        <mxCell id="xGK9PlimSgTLgPtPE4Tw-9" value="color" style="ellipse;whiteSpace=wrap;html=1;" vertex="1" parent="1">
          <mxGeometry x="-130" y="-330" width="120" height="80" as="geometry" />
        </mxCell>
        <mxCell id="xGK9PlimSgTLgPtPE4Tw-10" value="" style="endArrow=none;html=1;rounded=0;entryX=0;entryY=0.5;entryDx=0;entryDy=0;exitX=1;exitY=0.5;exitDx=0;exitDy=0;" edge="1" parent="1" source="xGK9PlimSgTLgPtPE4Tw-5" target="xGK9PlimSgTLgPtPE4Tw-4">
          <mxGeometry width="50" height="50" relative="1" as="geometry">
            <mxPoint x="220" y="-60" as="sourcePoint" />
            <mxPoint x="270" y="-110" as="targetPoint" />
          </mxGeometry>
        </mxCell>
        <mxCell id="xGK9PlimSgTLgPtPE4Tw-11" value="" style="endArrow=none;html=1;rounded=0;entryX=0;entryY=0.5;entryDx=0;entryDy=0;exitX=1;exitY=0.5;exitDx=0;exitDy=0;" edge="1" parent="1" source="xGK9PlimSgTLgPtPE4Tw-7" target="xGK9PlimSgTLgPtPE4Tw-4">
          <mxGeometry width="50" height="50" relative="1" as="geometry">
            <mxPoint x="40" y="-370" as="sourcePoint" />
            <mxPoint x="130" y="-190" as="targetPoint" />
          </mxGeometry>
        </mxCell>
        <mxCell id="xGK9PlimSgTLgPtPE4Tw-12" value="" style="endArrow=none;html=1;rounded=0;entryX=1;entryY=0.5;entryDx=0;entryDy=0;exitX=0;exitY=0.5;exitDx=0;exitDy=0;" edge="1" parent="1" source="xGK9PlimSgTLgPtPE4Tw-4" target="xGK9PlimSgTLgPtPE4Tw-8">
          <mxGeometry width="50" height="50" relative="1" as="geometry">
            <mxPoint x="220" y="-60" as="sourcePoint" />
            <mxPoint x="270" y="-110" as="targetPoint" />
          </mxGeometry>
        </mxCell>
        <mxCell id="xGK9PlimSgTLgPtPE4Tw-13" value="" style="endArrow=none;html=1;rounded=0;entryX=1;entryY=0.5;entryDx=0;entryDy=0;exitX=0;exitY=0.5;exitDx=0;exitDy=0;" edge="1" parent="1" source="xGK9PlimSgTLgPtPE4Tw-4" target="xGK9PlimSgTLgPtPE4Tw-9">
          <mxGeometry width="50" height="50" relative="1" as="geometry">
            <mxPoint x="220" y="-60" as="sourcePoint" />
            <mxPoint x="270" y="-110" as="targetPoint" />
          </mxGeometry>
        </mxCell>
        <mxCell id="xGK9PlimSgTLgPtPE4Tw-14" value="" style="endArrow=none;html=1;rounded=0;entryX=1;entryY=0.5;entryDx=0;entryDy=0;exitX=0;exitY=0.5;exitDx=0;exitDy=0;" edge="1" parent="1" source="xGK9PlimSgTLgPtPE4Tw-4" target="xGK9PlimSgTLgPtPE4Tw-6">
          <mxGeometry width="50" height="50" relative="1" as="geometry">
            <mxPoint x="230" y="-50" as="sourcePoint" />
            <mxPoint x="280" y="-100" as="targetPoint" />
          </mxGeometry>
        </mxCell>
        <mxCell id="xGK9PlimSgTLgPtPE4Tw-15" value="altres" style="ellipse;whiteSpace=wrap;html=1;" vertex="1" parent="1">
          <mxGeometry x="-130" y="400" width="120" height="80" as="geometry" />
        </mxCell>
        <mxCell id="xGK9PlimSgTLgPtPE4Tw-16" value="codi revisio" style="ellipse;whiteSpace=wrap;html=1;" vertex="1" parent="1">
          <mxGeometry x="-130" y="40" width="120" height="80" as="geometry" />
        </mxCell>
        <mxCell id="xGK9PlimSgTLgPtPE4Tw-17" value="canvi frens" style="ellipse;whiteSpace=wrap;html=1;" vertex="1" parent="1">
          <mxGeometry x="-130" y="310" width="120" height="80" as="geometry" />
        </mxCell>
        <mxCell id="xGK9PlimSgTLgPtPE4Tw-18" value="canvi filtre" style="ellipse;whiteSpace=wrap;html=1;" vertex="1" parent="1">
          <mxGeometry x="-130" y="130" width="120" height="80" as="geometry" />
        </mxCell>
        <mxCell id="xGK9PlimSgTLgPtPE4Tw-19" value="canvi d&#39;oli" style="ellipse;whiteSpace=wrap;html=1;" vertex="1" parent="1">
          <mxGeometry x="-130" y="220" width="120" height="80" as="geometry" />
        </mxCell>
        <mxCell id="xGK9PlimSgTLgPtPE4Tw-20" value="" style="endArrow=none;html=1;rounded=0;entryX=1;entryY=0.5;entryDx=0;entryDy=0;exitX=0;exitY=0.5;exitDx=0;exitDy=0;" edge="1" parent="1" source="xGK9PlimSgTLgPtPE4Tw-2" target="xGK9PlimSgTLgPtPE4Tw-16">
          <mxGeometry width="50" height="50" relative="1" as="geometry">
            <mxPoint x="490" y="540" as="sourcePoint" />
            <mxPoint x="540" y="490" as="targetPoint" />
          </mxGeometry>
        </mxCell>
        <mxCell id="xGK9PlimSgTLgPtPE4Tw-21" value="" style="endArrow=none;html=1;rounded=0;entryX=1;entryY=0.5;entryDx=0;entryDy=0;exitX=0;exitY=0.5;exitDx=0;exitDy=0;" edge="1" parent="1" source="xGK9PlimSgTLgPtPE4Tw-2" target="xGK9PlimSgTLgPtPE4Tw-18">
          <mxGeometry width="50" height="50" relative="1" as="geometry">
            <mxPoint x="500" y="550" as="sourcePoint" />
            <mxPoint x="550" y="500" as="targetPoint" />
          </mxGeometry>
        </mxCell>
        <mxCell id="xGK9PlimSgTLgPtPE4Tw-22" value="" style="endArrow=none;html=1;rounded=0;entryX=1;entryY=0.5;entryDx=0;entryDy=0;exitX=0;exitY=0.5;exitDx=0;exitDy=0;" edge="1" parent="1" source="xGK9PlimSgTLgPtPE4Tw-2" target="xGK9PlimSgTLgPtPE4Tw-19">
          <mxGeometry width="50" height="50" relative="1" as="geometry">
            <mxPoint x="340" y="520" as="sourcePoint" />
            <mxPoint x="250" y="430" as="targetPoint" />
          </mxGeometry>
        </mxCell>
        <mxCell id="xGK9PlimSgTLgPtPE4Tw-23" value="" style="endArrow=none;html=1;rounded=0;entryX=1;entryY=0.5;entryDx=0;entryDy=0;exitX=0;exitY=0.5;exitDx=0;exitDy=0;" edge="1" parent="1" source="xGK9PlimSgTLgPtPE4Tw-2" target="xGK9PlimSgTLgPtPE4Tw-17">
          <mxGeometry width="50" height="50" relative="1" as="geometry">
            <mxPoint x="140" y="480" as="sourcePoint" />
            <mxPoint x="50" y="390" as="targetPoint" />
          </mxGeometry>
        </mxCell>
        <mxCell id="xGK9PlimSgTLgPtPE4Tw-24" value="" style="endArrow=none;html=1;rounded=0;entryX=1;entryY=0.5;entryDx=0;entryDy=0;exitX=0;exitY=0.5;exitDx=0;exitDy=0;" edge="1" parent="1" source="xGK9PlimSgTLgPtPE4Tw-2" target="xGK9PlimSgTLgPtPE4Tw-15">
          <mxGeometry width="50" height="50" relative="1" as="geometry">
            <mxPoint x="130" y="380" as="sourcePoint" />
            <mxPoint x="60" y="400" as="targetPoint" />
          </mxGeometry>
        </mxCell>
        <mxCell id="xGK9PlimSgTLgPtPE4Tw-25" value="adreça" style="ellipse;whiteSpace=wrap;html=1;" vertex="1" parent="1">
          <mxGeometry x="940" y="-195" width="120" height="80" as="geometry" />
        </mxCell>
        <mxCell id="xGK9PlimSgTLgPtPE4Tw-26" value="codi client" style="ellipse;whiteSpace=wrap;html=1;" vertex="1" parent="1">
          <mxGeometry x="940" y="-645" width="120" height="80" as="geometry" />
        </mxCell>
        <mxCell id="xGK9PlimSgTLgPtPE4Tw-27" value="NIF" style="ellipse;whiteSpace=wrap;html=1;" vertex="1" parent="1">
          <mxGeometry x="940" y="-555" width="120" height="80" as="geometry" />
        </mxCell>
        <mxCell id="xGK9PlimSgTLgPtPE4Tw-28" value="segon cognom" style="ellipse;whiteSpace=wrap;html=1;" vertex="1" parent="1">
          <mxGeometry x="940" y="-285" width="120" height="80" as="geometry" />
        </mxCell>
        <mxCell id="xGK9PlimSgTLgPtPE4Tw-29" value="primer cognom" style="ellipse;whiteSpace=wrap;html=1;" vertex="1" parent="1">
          <mxGeometry x="940" y="-375" width="120" height="80" as="geometry" />
        </mxCell>
        <mxCell id="xGK9PlimSgTLgPtPE4Tw-30" value="nom" style="ellipse;whiteSpace=wrap;html=1;" vertex="1" parent="1">
          <mxGeometry x="940" y="-465" width="120" height="80" as="geometry" />
        </mxCell>
        <mxCell id="xGK9PlimSgTLgPtPE4Tw-31" value="" style="endArrow=none;html=1;rounded=0;entryX=0;entryY=0.5;entryDx=0;entryDy=0;exitX=1;exitY=0.5;exitDx=0;exitDy=0;" edge="1" parent="1" source="xGK9PlimSgTLgPtPE4Tw-3" target="xGK9PlimSgTLgPtPE4Tw-26">
          <mxGeometry width="50" height="50" relative="1" as="geometry">
            <mxPoint x="830" y="-200" as="sourcePoint" />
            <mxPoint x="940" y="-30" as="targetPoint" />
          </mxGeometry>
        </mxCell>
        <mxCell id="xGK9PlimSgTLgPtPE4Tw-32" value="" style="endArrow=none;html=1;rounded=0;exitX=0;exitY=0.5;exitDx=0;exitDy=0;" edge="1" parent="1" source="xGK9PlimSgTLgPtPE4Tw-27">
          <mxGeometry width="50" height="50" relative="1" as="geometry">
            <mxPoint x="900" y="30" as="sourcePoint" />
            <mxPoint x="800" y="-380" as="targetPoint" />
          </mxGeometry>
        </mxCell>
        <mxCell id="xGK9PlimSgTLgPtPE4Tw-33" value="" style="endArrow=none;html=1;rounded=0;entryX=1;entryY=0.5;entryDx=0;entryDy=0;exitX=0;exitY=0.5;exitDx=0;exitDy=0;" edge="1" parent="1" source="xGK9PlimSgTLgPtPE4Tw-30" target="xGK9PlimSgTLgPtPE4Tw-3">
          <mxGeometry width="50" height="50" relative="1" as="geometry">
            <mxPoint x="910" y="40" as="sourcePoint" />
            <mxPoint x="960" y="-10" as="targetPoint" />
          </mxGeometry>
        </mxCell>
        <mxCell id="xGK9PlimSgTLgPtPE4Tw-34" value="" style="endArrow=none;html=1;rounded=0;entryX=1;entryY=0.5;entryDx=0;entryDy=0;exitX=0;exitY=0.5;exitDx=0;exitDy=0;" edge="1" parent="1" source="xGK9PlimSgTLgPtPE4Tw-29" target="xGK9PlimSgTLgPtPE4Tw-3">
          <mxGeometry width="50" height="50" relative="1" as="geometry">
            <mxPoint x="920" y="50" as="sourcePoint" />
            <mxPoint x="970" as="targetPoint" />
          </mxGeometry>
        </mxCell>
        <mxCell id="xGK9PlimSgTLgPtPE4Tw-35" value="" style="endArrow=none;html=1;rounded=0;entryX=1;entryY=0.5;entryDx=0;entryDy=0;exitX=0;exitY=0.5;exitDx=0;exitDy=0;" edge="1" parent="1" source="xGK9PlimSgTLgPtPE4Tw-28" target="xGK9PlimSgTLgPtPE4Tw-3">
          <mxGeometry width="50" height="50" relative="1" as="geometry">
            <mxPoint x="930" y="60" as="sourcePoint" />
            <mxPoint x="980" y="10" as="targetPoint" />
          </mxGeometry>
        </mxCell>
        <mxCell id="xGK9PlimSgTLgPtPE4Tw-36" value="" style="endArrow=none;html=1;rounded=0;exitX=0;exitY=0.5;exitDx=0;exitDy=0;" edge="1" parent="1" source="xGK9PlimSgTLgPtPE4Tw-25">
          <mxGeometry width="50" height="50" relative="1" as="geometry">
            <mxPoint x="940" y="70" as="sourcePoint" />
            <mxPoint x="800" y="-380" as="targetPoint" />
          </mxGeometry>
        </mxCell>
        <mxCell id="xGK9PlimSgTLgPtPE4Tw-37" value="ciutat" style="ellipse;whiteSpace=wrap;html=1;" vertex="1" parent="1">
          <mxGeometry x="940" y="-100" width="120" height="80" as="geometry" />
        </mxCell>
        <mxCell id="xGK9PlimSgTLgPtPE4Tw-38" value="telefon" style="ellipse;whiteSpace=wrap;html=1;" vertex="1" parent="1">
          <mxGeometry x="940" y="-740" width="120" height="80" as="geometry" />
        </mxCell>
        <mxCell id="xGK9PlimSgTLgPtPE4Tw-39" value="" style="endArrow=none;html=1;rounded=0;exitX=0;exitY=0.5;exitDx=0;exitDy=0;" edge="1" parent="1" source="xGK9PlimSgTLgPtPE4Tw-38">
          <mxGeometry width="50" height="50" relative="1" as="geometry">
            <mxPoint x="980" y="-310" as="sourcePoint" />
            <mxPoint x="800" y="-380" as="targetPoint" />
          </mxGeometry>
        </mxCell>
        <mxCell id="xGK9PlimSgTLgPtPE4Tw-40" value="" style="endArrow=none;html=1;rounded=0;entryX=1;entryY=0.5;entryDx=0;entryDy=0;exitX=0;exitY=0.5;exitDx=0;exitDy=0;" edge="1" parent="1" source="xGK9PlimSgTLgPtPE4Tw-37" target="xGK9PlimSgTLgPtPE4Tw-3">
          <mxGeometry width="50" height="50" relative="1" as="geometry">
            <mxPoint x="980" y="-310" as="sourcePoint" />
            <mxPoint x="1030" y="-360" as="targetPoint" />
          </mxGeometry>
        </mxCell>
        <mxCell id="xGK9PlimSgTLgPtPE4Tw-41" value="segon cognom" style="ellipse;whiteSpace=wrap;html=1;" vertex="1" parent="1">
          <mxGeometry x="940" y="400" width="120" height="80" as="geometry" />
        </mxCell>
        <mxCell id="xGK9PlimSgTLgPtPE4Tw-42" value="primer cognom" style="ellipse;whiteSpace=wrap;html=1;" vertex="1" parent="1">
          <mxGeometry x="940" y="310" width="120" height="80" as="geometry" />
        </mxCell>
        <mxCell id="xGK9PlimSgTLgPtPE4Tw-43" value="nom" style="ellipse;whiteSpace=wrap;html=1;" vertex="1" parent="1">
          <mxGeometry x="940" y="220" width="120" height="80" as="geometry" />
        </mxCell>
        <mxCell id="xGK9PlimSgTLgPtPE4Tw-44" value="codi empleat" style="ellipse;whiteSpace=wrap;html=1;" vertex="1" parent="1">
          <mxGeometry x="940" y="130" width="120" height="80" as="geometry" />
        </mxCell>
        <mxCell id="xGK9PlimSgTLgPtPE4Tw-45" value="DNI" style="ellipse;whiteSpace=wrap;html=1;" vertex="1" parent="1">
          <mxGeometry x="940" y="40" width="120" height="80" as="geometry" />
        </mxCell>
        <mxCell id="xGK9PlimSgTLgPtPE4Tw-46" value="" style="endArrow=none;html=1;rounded=0;entryX=0;entryY=0.5;entryDx=0;entryDy=0;exitX=1;exitY=0.5;exitDx=0;exitDy=0;" edge="1" parent="1" source="xGK9PlimSgTLgPtPE4Tw-1" target="xGK9PlimSgTLgPtPE4Tw-45">
          <mxGeometry width="50" height="50" relative="1" as="geometry">
            <mxPoint x="750" y="300" as="sourcePoint" />
            <mxPoint x="800" y="250" as="targetPoint" />
          </mxGeometry>
        </mxCell>
        <mxCell id="xGK9PlimSgTLgPtPE4Tw-47" value="" style="endArrow=none;html=1;rounded=0;entryX=0;entryY=0.5;entryDx=0;entryDy=0;exitX=1;exitY=0.5;exitDx=0;exitDy=0;" edge="1" parent="1" source="xGK9PlimSgTLgPtPE4Tw-1" target="xGK9PlimSgTLgPtPE4Tw-44">
          <mxGeometry width="50" height="50" relative="1" as="geometry">
            <mxPoint x="750" y="300" as="sourcePoint" />
            <mxPoint x="800" y="250" as="targetPoint" />
          </mxGeometry>
        </mxCell>
        <mxCell id="xGK9PlimSgTLgPtPE4Tw-48" value="" style="endArrow=none;html=1;rounded=0;entryX=0;entryY=0.5;entryDx=0;entryDy=0;exitX=1;exitY=0.5;exitDx=0;exitDy=0;" edge="1" parent="1" source="xGK9PlimSgTLgPtPE4Tw-1" target="xGK9PlimSgTLgPtPE4Tw-43">
          <mxGeometry width="50" height="50" relative="1" as="geometry">
            <mxPoint x="750" y="300" as="sourcePoint" />
            <mxPoint x="800" y="250" as="targetPoint" />
          </mxGeometry>
        </mxCell>
        <mxCell id="xGK9PlimSgTLgPtPE4Tw-49" value="" style="endArrow=none;html=1;rounded=0;entryX=0;entryY=0.5;entryDx=0;entryDy=0;exitX=1;exitY=0.5;exitDx=0;exitDy=0;" edge="1" parent="1" source="xGK9PlimSgTLgPtPE4Tw-1" target="xGK9PlimSgTLgPtPE4Tw-42">
          <mxGeometry width="50" height="50" relative="1" as="geometry">
            <mxPoint x="750" y="300" as="sourcePoint" />
            <mxPoint x="800" y="250" as="targetPoint" />
          </mxGeometry>
        </mxCell>
        <mxCell id="xGK9PlimSgTLgPtPE4Tw-50" value="" style="endArrow=none;html=1;rounded=0;entryX=0;entryY=0.5;entryDx=0;entryDy=0;exitX=1;exitY=0.5;exitDx=0;exitDy=0;" edge="1" parent="1" source="xGK9PlimSgTLgPtPE4Tw-1" target="xGK9PlimSgTLgPtPE4Tw-41">
          <mxGeometry width="50" height="50" relative="1" as="geometry">
            <mxPoint x="750" y="300" as="sourcePoint" />
            <mxPoint x="800" y="250" as="targetPoint" />
          </mxGeometry>
        </mxCell>
        <mxCell id="xGK9PlimSgTLgPtPE4Tw-51" value="comprar" style="rhombus;whiteSpace=wrap;html=1;" vertex="1" parent="1">
          <mxGeometry x="400" y="-420" width="80" height="80" as="geometry" />
        </mxCell>
        <mxCell id="xGK9PlimSgTLgPtPE4Tw-52" value="passar" style="rhombus;whiteSpace=wrap;html=1;" vertex="1" parent="1">
          <mxGeometry x="100" y="-100" width="80" height="80" as="geometry" />
        </mxCell>
        <mxCell id="xGK9PlimSgTLgPtPE4Tw-53" value="realitzar" style="rhombus;whiteSpace=wrap;html=1;" vertex="1" parent="1">
          <mxGeometry x="400" y="220" width="80" height="80" as="geometry" />
        </mxCell>
        <mxCell id="xGK9PlimSgTLgPtPE4Tw-54" value="" style="endArrow=none;html=1;rounded=0;entryX=1;entryY=0.5;entryDx=0;entryDy=0;exitX=0;exitY=0.5;exitDx=0;exitDy=0;" edge="1" parent="1" source="xGK9PlimSgTLgPtPE4Tw-1" target="xGK9PlimSgTLgPtPE4Tw-53">
          <mxGeometry width="50" height="50" relative="1" as="geometry">
            <mxPoint x="630" y="290" as="sourcePoint" />
            <mxPoint x="680" y="240" as="targetPoint" />
          </mxGeometry>
        </mxCell>
        <mxCell id="xGK9PlimSgTLgPtPE4Tw-55" value="" style="endArrow=none;html=1;rounded=0;exitX=1;exitY=0.5;exitDx=0;exitDy=0;entryX=0;entryY=0.5;entryDx=0;entryDy=0;" edge="1" parent="1" source="xGK9PlimSgTLgPtPE4Tw-2" target="xGK9PlimSgTLgPtPE4Tw-53">
          <mxGeometry width="50" height="50" relative="1" as="geometry">
            <mxPoint x="650" y="150" as="sourcePoint" />
            <mxPoint x="700" y="100" as="targetPoint" />
          </mxGeometry>
        </mxCell>
        <mxCell id="xGK9PlimSgTLgPtPE4Tw-56" value="" style="endArrow=none;html=1;rounded=0;exitX=0.5;exitY=0;exitDx=0;exitDy=0;entryX=0.5;entryY=1;entryDx=0;entryDy=0;" edge="1" parent="1" source="xGK9PlimSgTLgPtPE4Tw-2" target="xGK9PlimSgTLgPtPE4Tw-52">
          <mxGeometry width="50" height="50" relative="1" as="geometry">
            <mxPoint x="650" y="150" as="sourcePoint" />
            <mxPoint x="700" y="100" as="targetPoint" />
          </mxGeometry>
        </mxCell>
        <mxCell id="xGK9PlimSgTLgPtPE4Tw-57" value="" style="endArrow=none;html=1;rounded=0;entryX=0.5;entryY=1;entryDx=0;entryDy=0;exitX=0.5;exitY=0;exitDx=0;exitDy=0;" edge="1" parent="1" source="xGK9PlimSgTLgPtPE4Tw-52" target="xGK9PlimSgTLgPtPE4Tw-4">
          <mxGeometry width="50" height="50" relative="1" as="geometry">
            <mxPoint x="430" y="130" as="sourcePoint" />
            <mxPoint x="480" y="80" as="targetPoint" />
          </mxGeometry>
        </mxCell>
        <mxCell id="xGK9PlimSgTLgPtPE4Tw-58" value="" style="endArrow=none;html=1;rounded=0;entryX=1;entryY=0.5;entryDx=0;entryDy=0;exitX=0;exitY=0.5;exitDx=0;exitDy=0;" edge="1" parent="1" source="xGK9PlimSgTLgPtPE4Tw-51" target="xGK9PlimSgTLgPtPE4Tw-4">
          <mxGeometry width="50" height="50" relative="1" as="geometry">
            <mxPoint x="430" y="130" as="sourcePoint" />
            <mxPoint x="480" y="80" as="targetPoint" />
          </mxGeometry>
        </mxCell>
        <mxCell id="xGK9PlimSgTLgPtPE4Tw-59" value="" style="endArrow=none;html=1;rounded=0;entryX=1;entryY=0.5;entryDx=0;entryDy=0;exitX=0;exitY=0.5;exitDx=0;exitDy=0;" edge="1" parent="1" source="xGK9PlimSgTLgPtPE4Tw-3" target="xGK9PlimSgTLgPtPE4Tw-51">
          <mxGeometry width="50" height="50" relative="1" as="geometry">
            <mxPoint x="430" y="130" as="sourcePoint" />
            <mxPoint x="480" y="80" as="targetPoint" />
          </mxGeometry>
        </mxCell>
        <mxCell id="xGK9PlimSgTLgPtPE4Tw-60" value="1" style="text;html=1;align=center;verticalAlign=middle;whiteSpace=wrap;rounded=0;" vertex="1" parent="1">
          <mxGeometry x="640" y="-405" width="60" height="30" as="geometry" />
        </mxCell>
        <mxCell id="xGK9PlimSgTLgPtPE4Tw-62" value="N" style="text;html=1;align=center;verticalAlign=middle;whiteSpace=wrap;rounded=0;" vertex="1" parent="1">
          <mxGeometry x="180" y="-410" width="60" height="30" as="geometry" />
        </mxCell>
        <mxCell id="xGK9PlimSgTLgPtPE4Tw-63" value="1" style="text;html=1;align=center;verticalAlign=middle;whiteSpace=wrap;rounded=0;" vertex="1" parent="1">
          <mxGeometry x="640" y="230" width="60" height="30" as="geometry" />
        </mxCell>
        <mxCell id="xGK9PlimSgTLgPtPE4Tw-64" value="M" style="text;html=1;align=center;verticalAlign=middle;whiteSpace=wrap;rounded=0;" vertex="1" parent="1">
          <mxGeometry x="120" y="-350" width="60" height="30" as="geometry" />
        </mxCell>
        <mxCell id="xGK9PlimSgTLgPtPE4Tw-65" value="N" style="text;html=1;align=center;verticalAlign=middle;whiteSpace=wrap;rounded=0;" vertex="1" parent="1">
          <mxGeometry x="120" y="200" width="60" height="30" as="geometry" />
        </mxCell>
        <mxCell id="xGK9PlimSgTLgPtPE4Tw-70" value="N" style="text;html=1;align=center;verticalAlign=middle;whiteSpace=wrap;rounded=0;" vertex="1" parent="1">
          <mxGeometry x="180" y="230" width="60" height="30" as="geometry" />
        </mxCell>
      </root>
    </mxGraphModel>
  </diagram>
</mxfile>
